<svg xmlns="http://www.w3.org/2000/svg" width="149" height="40" viewBox="0 0 149 40" fill="none">
<path d="M3.13817 29.8039L3.13817 36.8627L10.197 36.8627C11.0633 36.8627 11.7656 37.565 11.7656 38.4314C11.7656 39.2977 11.0633 40 10.197 40L3.13817 40C1.40552 40 0.000919465 38.5954 0.000919616 36.8627L0.000920233 29.8039C0.000920309 28.9376 0.703219 28.2353 1.56955 28.2353C2.43588 28.2353 3.13818 28.9376 3.13817 29.8039Z" fill="#132C61"/>
<path d="M10.1961 9.41186L3.13725 9.41186L3.13725 16.4707C3.13725 17.337 2.43496 18.0393 1.56863 18.0393C0.702298 18.0393 -3.06984e-08 17.337 -6.85669e-08 16.4707L-3.77118e-07 9.41186C-4.27589e-07 7.6792 1.4046 6.2746 3.13725 6.2746L10.1961 6.2746C11.0624 6.2746 11.7647 6.9769 11.7647 7.84323C11.7647 8.70956 11.0624 9.41186 10.1961 9.41186Z" fill="#132C61"/>
<path d="M26.6672 36.8628L33.726 36.8628L33.726 29.804C33.726 28.9376 34.4283 28.2354 35.2947 28.2354C36.161 28.2354 36.8633 28.9376 36.8633 29.804L36.8633 36.8628C36.8633 38.5955 35.4587 40.0001 33.726 40.0001L26.6672 40.0001C25.8009 40.0001 25.0986 39.2978 25.0986 38.4314C25.0986 37.5651 25.8009 36.8628 26.6672 36.8628Z" fill="#132C61"/>
<path d="M13.6045 32.9412C12.316 32.9412 11.4083 31.676 11.8211 30.4555L17.3462 14.1177H20.6117V17.8746H19.4936L15.4088 31.5957C15.1712 32.394 14.4373 32.9412 13.6045 32.9412ZM14.3857 28.3756L15.326 25.4274H23.8009L24.7412 28.3756H14.3857ZM25.6032 32.9412C24.7678 32.9412 24.0318 32.3919 23.794 31.591L19.7223 17.8746V14.1177H21.8569L27.3906 30.4483C27.8053 31.672 26.8953 32.9412 25.6032 32.9412Z" fill="#48BA99"/>
<path d="M28.2352 1.5686L29.5062 5.00347L32.9411 6.27449L29.5062 7.5455L28.2352 10.9804L26.9642 7.5455L23.5293 6.27449L26.9642 5.00347L28.2352 1.5686Z" fill="#132C61"/>
<path d="M32.9405 9.41174L34.6352 13.9916L39.215 15.6863L34.6352 17.3809L32.9405 21.9608L31.2458 17.3809L26.666 15.6863L31.2458 13.9916L32.9405 9.41174Z" fill="#132C61"/>
<path d="M39.2154 6.27454L40.0627 8.56445L42.3526 9.41179L40.0627 10.2591L39.2154 12.549L38.368 10.2591L36.0781 9.41179L38.368 8.56445L39.2154 6.27454Z" fill="#132C61"/>
<path d="M36.0787 0L36.926 2.28991L39.2159 3.13725L36.926 3.9846L36.0787 6.27451L35.2313 3.9846L32.9414 3.13725L35.2313 2.28991L36.0787 0Z" fill="#132C61"/>
<path d="M142.798 21.2204C141.363 21.2204 140.228 20.7007 139.394 19.6612C138.574 18.6071 138.164 17.165 138.164 15.335C138.164 14.2223 138.354 13.2487 138.735 12.4142C139.116 11.5797 139.657 10.9355 140.36 10.4816C141.078 10.0278 141.912 9.80083 142.864 9.80083C143.508 9.80083 144.072 9.91064 144.555 10.1302C145.052 10.3499 145.484 10.6866 145.85 11.1404H145.894V4.70593H148.683V18.08C148.683 19.6027 148.705 20.5763 148.749 21.0008H146.114C146.099 20.7519 146.092 20.2688 146.092 19.5514H146.048C145.711 20.0492 145.243 20.4518 144.642 20.7593C144.057 21.0667 143.442 21.2204 142.798 21.2204ZM143.347 19.0683C144.123 19.0683 144.738 18.8487 145.192 18.4095C145.66 17.9556 145.894 17.3627 145.894 16.6306V14.3687C145.894 13.6513 145.653 13.0584 145.17 12.5899C144.686 12.1214 144.079 11.8871 143.347 11.8871C142.571 11.8871 141.978 12.1872 141.568 12.7875C141.158 13.3878 140.953 14.2516 140.953 15.3789C140.953 16.5648 141.158 17.4798 141.568 18.124C141.978 18.7535 142.571 19.0683 143.347 19.0683Z" fill="#132C61"/>
<path d="M135.523 21.2204C134.586 21.2204 133.869 20.9716 133.371 20.4738C132.888 19.9614 132.646 19.2293 132.646 18.2777V4.70593H135.436V18.3216C135.436 18.6437 135.516 18.8853 135.677 19.0463C135.853 19.1927 136.109 19.2659 136.446 19.2659C136.782 19.2659 137.2 19.1708 137.697 18.9804L138.115 20.4738C137.456 20.9716 136.592 21.2204 135.523 21.2204Z" fill="#132C61"/>
<path d="M130.715 16.5427H123.072C123.306 18.0946 124.207 18.8706 125.773 18.8706C126.418 18.8706 126.974 18.7608 127.442 18.5412C127.926 18.3216 128.394 17.9556 128.848 17.4431L130.363 18.8925C129.939 19.5953 129.294 20.159 128.431 20.5835C127.581 21.0081 126.644 21.2204 125.62 21.2204C123.907 21.2204 122.574 20.7226 121.623 19.7271C120.671 18.7169 120.195 17.326 120.195 15.5545C120.195 13.7684 120.671 12.3629 121.623 11.338C122.589 10.3132 123.914 9.80078 125.598 9.80078C127.208 9.80078 128.46 10.3059 129.353 11.3161C130.261 12.3263 130.715 13.7318 130.715 15.5325V16.5427ZM127.969 14.5004C127.969 13.7537 127.75 13.1681 127.311 12.7435C126.886 12.3043 126.293 12.0847 125.532 12.0847C124.844 12.0847 124.287 12.3116 123.863 12.7655C123.438 13.2047 123.167 13.8269 123.05 14.6322H127.969V14.5004Z" fill="#132C61"/>
<path d="M116.474 8.74675C115.932 8.74675 115.501 8.60035 115.178 8.30754C114.856 8.00009 114.695 7.59747 114.695 7.09969C114.695 6.60192 114.856 6.20662 115.178 5.91381C115.501 5.60636 115.932 5.45264 116.474 5.45264C117.016 5.45264 117.448 5.60636 117.77 5.91381C118.107 6.20662 118.275 6.60192 118.275 7.09969C118.275 7.59747 118.114 8.00009 117.792 8.30754C117.47 8.60035 117.03 8.74675 116.474 8.74675ZM115.091 10.0205H117.88V21.0009H115.091V10.0205Z" fill="#132C61"/>
<path d="M102.371 5.6283H112.693V8.15379H105.533V12.2605H112.21V14.7859H105.533V21.0008H102.371V5.6283Z" fill="#132C61"/>
<path d="M94.5072 21.2204C92.7357 21.2204 91.3522 20.7153 90.3566 19.7051C89.3611 18.6949 88.8633 17.2967 88.8633 15.5106C88.8633 13.7244 89.3611 12.3263 90.3566 11.3161C91.3522 10.3059 92.7357 9.80078 94.5072 9.80078C96.2787 9.80078 97.6622 10.3059 98.6578 11.3161C99.668 12.3263 100.173 13.7244 100.173 15.5106C100.173 17.2967 99.668 18.6949 98.6578 19.7051C97.6622 20.7153 96.2787 21.2204 94.5072 21.2204ZM94.5072 19.1341C95.4003 19.1341 96.103 18.812 96.6154 18.1678C97.1279 17.5237 97.3841 16.6379 97.3841 15.5106C97.3841 14.3833 97.1279 13.4975 96.6154 12.8533C96.103 12.2091 95.4003 11.8871 94.5072 11.8871C93.6141 11.8871 92.9114 12.2091 92.399 12.8533C91.9012 13.4975 91.6523 14.3833 91.6523 15.5106C91.6523 16.6379 91.9012 17.5237 92.399 18.1678C92.9114 18.812 93.6141 19.1341 94.5072 19.1341Z" fill="#132C61"/>
<path d="M85.4452 21.2205C84.3179 21.2205 83.4395 20.9131 82.8099 20.2982C82.1804 19.6832 81.8656 18.8195 81.8656 17.7068V12.1068H79.8672V10.0205H81.8656V7.18756L84.5888 6.39697H84.6766V10.0205H87.8609V12.1068H84.6766V17.2895C84.6766 17.9191 84.823 18.3802 85.1158 18.6731C85.4086 18.9659 85.8552 19.1123 86.4554 19.1123C87.0264 19.1123 87.5608 19.0244 88.0586 18.8487L88.1903 20.7593C87.5315 21.0668 86.6165 21.2205 85.4452 21.2205Z" fill="#132C61"/>
<path d="M72.1908 21.2204C70.9317 21.2204 69.9728 20.7958 69.3139 19.9467C68.6697 19.0975 68.3477 17.8531 68.3477 16.2133V10.0204H71.1586V16.2353C71.1586 17.1723 71.3124 17.8604 71.6198 18.2996C71.9273 18.7388 72.4031 18.9584 73.0473 18.9584C73.8232 18.9584 74.4601 18.6656 74.9579 18.08C75.4556 17.4797 75.7045 16.7404 75.7045 15.862V10.0204H78.5155V18.2118C78.5155 18.9584 78.5741 19.8881 78.6912 21.0008H76.0339C75.9168 20.342 75.8509 19.6978 75.8363 19.0682H75.7924C75.5288 19.7271 75.0677 20.2541 74.4088 20.6494C73.7647 21.0301 73.0253 21.2204 72.1908 21.2204Z" fill="#132C61"/>
<path d="M63.7889 18.4534H58.4963L57.7277 21.0008H54.4336L59.7481 5.6283H62.5371L67.8516 21.0008H64.5575L63.7889 18.4534ZM63.0203 15.9279L61.1536 9.77888L59.265 15.9279H63.0203Z" fill="#132C61"/>
<path d="M88.0936 33.6754C87.6335 33.6754 87.2737 33.5541 87.0144 33.3115C86.7634 33.0689 86.6379 32.7175 86.6379 32.2574C86.6379 32.1653 86.6546 32.0022 86.6881 31.7679L87.3657 27.9656H86.2363L86.3618 27.2754H87.4912L87.7924 25.5813L88.6583 25.3177H88.7085L88.3697 27.2754H90.1391L90.0136 27.9656H88.2442L87.5916 31.6174C87.5582 31.7847 87.5414 31.952 87.5414 32.1193C87.5414 32.3954 87.6042 32.6045 87.7297 32.7468C87.8552 32.889 88.0601 32.9601 88.3446 32.9601C88.6708 32.9601 88.9637 32.9099 89.223 32.8095L89.1853 33.4746C88.8842 33.6085 88.5202 33.6754 88.0936 33.6754Z" fill="#48BA99"/>
<path d="M80.6439 24.2385H81.5098L80.782 28.3672C81.0078 27.999 81.3299 27.7062 81.7482 27.4887C82.1749 27.2628 82.6183 27.1499 83.0784 27.1499C83.6975 27.1499 84.1744 27.3256 84.509 27.677C84.8437 28.02 85.011 28.5136 85.011 29.1577C85.011 29.4087 84.9859 29.6806 84.9357 29.9734L84.3082 33.5499H83.4424L84.0824 29.9609C84.1242 29.7517 84.1451 29.5175 84.1451 29.2581C84.1451 28.798 84.0405 28.4466 83.8314 28.204C83.6222 27.9614 83.3169 27.8401 82.9153 27.8401C82.5305 27.8401 82.1665 27.9405 81.8235 28.1413C81.4805 28.3337 81.1877 28.6056 80.9451 28.957C80.7025 29.3 80.5435 29.689 80.4682 30.124L79.8659 33.5499H79L80.6439 24.2385Z" fill="#48BA99"/>
<path d="M78.4354 27.2754L77.3687 33.3617C77.2014 34.3489 76.8374 35.0976 76.2769 35.6079C75.7248 36.1183 74.9927 36.3734 74.0808 36.3734C73.6709 36.3734 73.2735 36.3232 72.8887 36.2228C72.5122 36.1308 72.1776 36.0011 71.8848 35.8338L72.2989 35.1687C72.5917 35.3277 72.8845 35.4406 73.1773 35.5075C73.4701 35.5828 73.7839 35.6205 74.1185 35.6205C74.8045 35.6205 75.3483 35.4239 75.7499 35.0307C76.1598 34.6375 76.4359 34.0393 76.5781 33.2362L76.691 32.5962C76.4652 32.9308 76.1682 33.1943 75.8001 33.3868C75.432 33.5708 75.0304 33.6628 74.5954 33.6628C73.901 33.6628 73.3572 33.4495 72.964 33.0228C72.5708 32.5962 72.3742 32.0064 72.3742 31.2534C72.3742 30.4754 72.508 29.7726 72.7757 29.1452C73.0518 28.5177 73.4325 28.0283 73.9177 27.677C74.4113 27.3256 74.9635 27.1499 75.5742 27.1499C76.0092 27.1499 76.3899 27.2461 76.7161 27.4385C77.0508 27.6226 77.285 27.8819 77.4189 28.2166H77.444L77.7201 27.2754H78.4354ZM77.0926 29.986C77.1261 29.8103 77.1428 29.6262 77.1428 29.4338C77.1428 28.9319 77.0131 28.5428 76.7538 28.2668C76.4944 27.9823 76.1263 27.8401 75.6495 27.8401C75.1977 27.8401 74.7878 27.9865 74.4197 28.2793C74.0516 28.5638 73.7629 28.9611 73.5538 29.4715C73.3446 29.9734 73.2401 30.534 73.2401 31.153C73.2401 31.7219 73.3697 32.1653 73.6291 32.4832C73.8968 32.7928 74.2649 32.9475 74.7334 32.9475C75.3023 32.9475 75.7791 32.776 76.164 32.433C76.5572 32.0817 76.8082 31.6048 76.9169 31.0025L77.0926 29.986Z" fill="#48BA99"/>
<path d="M71.251 26.0582C71.0837 26.0582 70.9456 26.0122 70.8369 25.9201C70.7365 25.8197 70.6863 25.6984 70.6863 25.5562C70.6863 25.3303 70.7574 25.1421 70.8996 24.9915C71.0502 24.8409 71.2426 24.7656 71.4769 24.7656C71.6442 24.7656 71.7822 24.8116 71.891 24.9037C71.9998 24.9957 72.0541 25.1212 72.0541 25.2801C72.0541 25.4977 71.9788 25.6817 71.8283 25.8323C71.6777 25.9829 71.4853 26.0582 71.251 26.0582ZM70.5985 27.2754H71.4769L70.3726 33.5499H69.4941L70.5985 27.2754Z" fill="#48BA99"/>
<path d="M65.8924 33.6754C65.4322 33.6754 65.0139 33.5792 64.6375 33.3868C64.2694 33.1943 64.0393 32.9559 63.9473 32.6715L64.5998 32.2699C64.7002 32.4958 64.8675 32.6715 65.1018 32.797C65.3444 32.9225 65.6205 32.9852 65.93 32.9852C66.365 32.9852 66.7248 32.8597 67.0092 32.6087C67.2937 32.3494 67.4359 32.0315 67.4359 31.655C67.4359 31.4124 67.3522 31.2074 67.1849 31.0401C67.026 30.8728 66.7415 30.7055 66.3316 30.5381C65.7711 30.3123 65.3653 30.0738 65.1143 29.8228C64.8633 29.5635 64.7379 29.2623 64.7379 28.9193C64.7379 28.3755 64.9345 27.9447 65.3277 27.6268C65.7209 27.3089 66.2521 27.1499 66.9214 27.1499C67.323 27.1499 67.6911 27.2419 68.0257 27.426C68.3687 27.61 68.5946 27.8443 68.7033 28.1287L68.0759 28.5303C67.9755 28.3044 67.8207 28.1329 67.6116 28.0158C67.4108 27.8987 67.1765 27.8401 66.9088 27.8401C66.524 27.8401 66.2103 27.9321 65.9677 28.1162C65.7334 28.2919 65.6163 28.5219 65.6163 28.8064C65.6163 29.0072 65.7125 29.1912 65.9049 29.3585C66.0973 29.5175 66.4278 29.6932 66.8963 29.8856C67.3815 30.0947 67.7413 30.3332 67.9755 30.6009C68.2097 30.8686 68.3269 31.1781 68.3269 31.5295C68.3269 31.9478 68.2265 32.3201 68.0257 32.6464C67.8249 32.9726 67.5405 33.2278 67.1724 33.4119C66.8043 33.5875 66.3776 33.6754 65.8924 33.6754Z" fill="#48BA99"/>
<path d="M58.1377 28.8315C58.2715 28.0116 58.3468 27.4929 58.3635 27.2754H59.1541C59.1374 27.5849 59.083 27.9823 58.991 28.4675H59.0286C59.2713 28.0576 59.5975 27.7355 60.0075 27.5013C60.4258 27.267 60.8733 27.1499 61.3502 27.1499C61.9609 27.1499 62.4211 27.3172 62.7306 27.6519C63.0485 27.9781 63.2075 28.4592 63.2075 29.095C63.2075 29.3878 63.1782 29.6848 63.1196 29.986L62.4922 33.5499H61.6263L62.2537 29.9734C62.3039 29.6806 62.329 29.4171 62.329 29.1828C62.329 28.3044 61.94 27.8652 61.162 27.8652C60.7855 27.8652 60.4258 27.9614 60.0828 28.1538C59.7481 28.3462 59.4637 28.614 59.2294 28.957C59.0035 29.3 58.853 29.689 58.7777 30.124L58.1753 33.5499H57.2969L58.1377 28.8315Z" fill="#48BA99"/>
<path d="M56.3135 26.0582C56.1462 26.0582 56.0081 26.0122 55.8994 25.9201C55.799 25.8197 55.7488 25.6984 55.7488 25.5562C55.7488 25.3303 55.8199 25.1421 55.9621 24.9915C56.1127 24.8409 56.3051 24.7656 56.5394 24.7656C56.7067 24.7656 56.8447 24.8116 56.9535 24.9037C57.0623 24.9957 57.1166 25.1212 57.1166 25.2801C57.1166 25.4977 57.0413 25.6817 56.8908 25.8323C56.7402 25.9829 56.5478 26.0582 56.3135 26.0582ZM55.661 27.2754H56.5394L55.4351 33.5499H54.5566L55.661 27.2754Z" fill="#48BA99"/>
</svg>
