<svg xmlns="http://www.w3.org/2000/svg" viewBox="0 0 43 41" fill="none">
  <!-- Brackets -->
  <path d="M3.13817 29.8039L3.13817 36.8627L10.197 36.8627C11.0633 36.8627 11.7656 37.565 11.7656 38.4314C11.7656 39.2977 11.0633 40 10.197 40L3.13817 40C1.40552 40 0.000919465 38.5954 0.000919616 36.8627L0.000920233 29.8039C0.000920309 28.9376 0.703219 28.2353 1.56955 28.2353C2.43588 28.2353 3.13818 28.9376 3.13817 29.8039Z" fill="#132C61"/>
  <path d="M10.1961 9.41186L3.13725 9.41186L3.13725 16.4707C3.13725 17.337 2.43496 18.0393 1.56863 18.0393C0.702298 18.0393 -3.06984e-08 17.337 -6.85669e-08 16.4707L-3.77118e-07 9.41186C-4.27589e-07 7.6792 1.4046 6.2746 3.13725 6.2746L10.1961 6.2746C11.0624 6.2746 11.7647 6.9769 11.7647 7.84323C11.7647 8.70956 11.0624 9.41186 10.1961 9.41186Z" fill="#132C61"/>
  <path d="M26.6672 36.8628L33.726 36.8628L33.726 29.804C33.726 28.9376 34.4283 28.2354 35.2947 28.2354C36.161 28.2354 36.8633 28.9376 36.8633 29.804L36.8633 36.8628C36.8633 38.5955 35.4587 40.0001 33.726 40.0001L26.6672 40.0001C25.8009 40.0001 25.0986 39.2978 25.0986 38.4314C25.0986 37.5651 25.8009 36.8628 26.6672 36.8628Z" fill="#132C61"/>
  <!-- A letter -->
  <path d="M13.6045 32.9412C12.316 32.9412 11.4083 31.676 11.8211 30.4555L17.3462 14.1177H20.6117V17.8746H19.4936L15.4088 31.5957C15.1712 32.394 14.4373 32.9412 13.6045 32.9412ZM14.3857 28.3756L15.326 25.4274H23.8009L24.7412 28.3756H14.3857ZM25.6032 32.9412C24.7678 32.9412 24.0318 32.3919 23.794 31.591L19.7223 17.8746V14.1177H21.8569L27.3906 30.4483C27.8053 31.672 26.8953 32.9412 25.6032 32.9412Z" fill="#48BA99"/>
  <!-- Sparkles -->
  <path d="M28.2352 1.5686L29.5062 5.00347L32.9411 6.27449L29.5062 7.5455L28.2352 10.9804L26.9642 7.5455L23.5293 6.27449L26.9642 5.00347L28.2352 1.5686Z" fill="#132C61"/>
  <path d="M32.9405 9.41174L34.6352 13.9916L39.215 15.6863L34.6352 17.3809L32.9405 21.9608L31.2458 17.3809L26.666 15.6863L31.2458 13.9916L32.9405 9.41174Z" fill="#132C61"/>
  <path d="M39.2154 6.27454L40.0627 8.56445L42.3526 9.41179L40.0627 10.2591L39.2154 12.549L38.368 10.2591L36.0781 9.41179L38.368 8.56445L39.2154 6.27454Z" fill="#132C61"/>
  <path d="M36.0787 0L36.926 2.28991L39.2159 3.13725L36.926 3.9846L36.0787 6.27451L35.2313 3.9846L32.9414 3.13725L35.2313 2.28991L36.0787 0Z" fill="#132C61"/>
</svg>
