<svg width="73" height="72" viewBox="0 0 73 72" fill="none" xmlns="http://www.w3.org/2000/svg">
<g clip-path="url(#clip0_5040_127336)">
<path d="M32.6472 9.61583C32.6472 8.60907 31.8311 7.79297 30.8244 7.79297H8.76265C7.75589 7.79297 6.93979 8.60907 6.93979 9.61583V10.3209C6.93979 11.1363 6.27882 11.7972 5.46348 11.7972C4.45673 11.7972 3.64062 12.6133 3.64062 13.6201V30.7031H67.4361V11.7971H34.8286C33.6239 11.7971 32.6472 10.8205 32.6472 9.61583Z" fill="#2F54EB"/>
<path d="M65.7387 15.3369H7.6875V45.241H65.7387V15.3369Z" fill="white"/>
<path d="M68.8544 64.2071H4.14556C2.13221 64.2071 0.5 62.5749 0.5 60.5616V21.8181C0.5 19.8048 2.13221 18.1726 4.14556 18.1726H43.2924C44.7897 18.1726 46.1347 17.2572 46.6839 15.8642L48.4569 11.367C49.0061 9.97402 50.3511 9.05859 51.8483 9.05859H68.8541C70.8675 9.05859 72.4997 10.6908 72.4997 12.7042V60.5616C72.5 62.5749 70.8678 64.2071 68.8544 64.2071Z" fill="url(#paint0_linear_5040_127336)"/>
</g>
<defs>
<linearGradient id="paint0_linear_5040_127336" x1="66.2" y1="9.00015" x2="7.70001" y2="58.0502" gradientUnits="userSpaceOnUse">
<stop stop-color="#A7C5FF"/>
<stop offset="1" stop-color="#4F71FB"/>
</linearGradient>
<clipPath id="clip0_5040_127336">
<rect width="72" height="72" fill="white" transform="translate(0.5)"/>
</clipPath>
</defs>
</svg>
